# xmcd
#
# Track frame offsets:
#	187
#	12167
#	24887
#	35935
#	47522
#	58212
#	69755
#	80865
#	91275
#	104175
#	114132
#	123542
#	134167
#	143452
#	153615
#	163620
#	174495
#	187495
#	199970
#	214070
#
# Disc length: 2987 seconds
#
# Revision: 1
# Processed by: cddbd v1.5.1PL0 Copyright (c) Steve Scherf et al.
# Submitted via: audiograbber 1.82.02
#
DISCID=290ba914
DTITLE=Jim Reeves - Jim Reeves Best Selection
DYEAR=1900
DGENRE=Country
TTITLE0=Mexican Joe
TTITLE1=Bimbo
TTITLE2=Oklahoma Hills
TTITLE3=Roly Poly
TTITLE4=Your Old Love Letter
TTITLE5=Yonder Comes A Sucker
TTITLE6=According To My Heart
TTITLE7=Am I Lossing You
TTITLE8=Four Walls
TTITLE9=Blue Boy
TTITLE10=Billy Bayou
TTITLE11=He'll Have To Go
TTITLE12=I Know One
TTITLE13=Stand At Your Window
TTITLE14=Welcome To My World
TTITLE15=I Guess I'm Crazy
TTITLE16=Distant Drums
TTITLE17=Blue Side Of Lonesome
TTITLE18=This Is It
TTITLE19=You're The Only Good Thing
EXTD=
EXTT0=
EXTT1=
EXTT2=
EXTT3=
EXTT4=
EXTT5=
EXTT6=
EXTT7=
EXTT8=
EXTT9=
EXTT10=
EXTT11=
EXTT12=
EXTT13=
EXTT14=
EXTT15=
EXTT16=
EXTT17=
EXTT18=
EXTT19=
PLAYORDER=
